<svg xmlns="http://www.w3.org/2000/svg" width="1024" viewBox="0 0 768 720" height="960" version="1.2">
  <defs>
    <clipPath id="a">
      <path d="M.266 0H768v720H.266Zm0 0"/>
    </clipPath>
  </defs>
  <path style="fill:#f9f9f9;fill-opacity:0;stroke:none" d="M0 0h768v720H0z" fill="none"/>
  <g clip-path="url(#a)" fill="none">
    <path style="fill:#fcfcfc;fill-opacity:0;stroke:none" d="M0 0h768v720H0z"/>
    <path style="stroke:none;fill-rule:nonzero;fill:#fcfcfc;fill-opacity:0" d="m26.137-367.145 9.996-.015c9.05-.012 18.12-.012 27.172-.012 9.812-.015 19.61-.015 29.418-.027a55583 55583 0 0 1 67.523-.043c11.14 0 22.285 0 33.438-.016 47.847-.012 95.68-.027 143.511-.039h3.618c38.68-.015 77.363-.031 116.042-.07 45.508-.031 91.012-.059 136.504-.059h3.364l53.312-.039c17.899-.031 35.809-.031 53.703-.015 9.672 0 19.344 0 29.012-.016 77.266-.168 147.926 4.738 216.586 44.05 48.07 28.239 88.937 68.419 116.98 116.673a670 670 0 0 1 7.848 14.351l1.684 3.14c27.425 52.009 35.836 110 35.64 168.063 0 3.492.012 6.969.012 10.457.027 9.434.016 18.88 0 28.309-.012 9.168 0 18.348.016 27.527.027 19.887.027 39.774.011 59.66a37822 37822 0 0 0-.011 69.848c.011 44.063 0 88.113-.016 132.16q-.04 58.59 0 117.18c.027 48.687.027 97.36.016 146.047v3.504c0 17.379 0 34.77.011 52.164.016 19.773 0 39.562-.011 59.351a9758 9758 0 0 0 0 30.246q.015 13.87-.028 27.746c0 3.325 0 6.66.012 9.98.184 59.017-12.191 115.372-41.426 166.93a278 278 0 0 1-23.46 34.255l-3.223 4.105c-12.84 16.074-26.688 31.91-42.704 44.875l-4.824 4.078c-32.879 27.399-71.656 48.91-113.054 60.207l-3.77 1.04a762 762 0 0 1-12.012 3.081l-3.504.883c-4.273 1.008-8.55 1.836-12.851 2.664l-2.887.559c-26.347 4.949-52.781 4.765-79.465 4.808-6.98.012-13.945.04-20.925.082-14 .07-28 .114-42.016.157-11.617.027-23.234.054-34.867.109-141.2.535-282.414.547-423.614.59h-4.425l-35.461.015c-35.426.012-70.844.012-106.285 0H73.215q-16.629.018-33.258 0H23.152c-72.425.055-72.425.055-99.757-4.316l-5.184-.812c-52.668-8.692-101.848-31.926-143.246-65.45-19.8-16.398-37.266-34.437-52.485-55.148-1.207-1.629-2.398-3.254-3.628-4.922-8.356-11.7-15.559-23.879-22.356-36.55a720 720 0 0 0-4.344-7.903c-18.148-34.125-28.785-72.95-32.445-111.363l-.379-3.727c-1.5-16.61-1.371-33.203-1.36-49.863l-.011-10.262c-.016-9.36-.016-18.723-.016-28.086-.011-9.066-.011-18.148-.027-27.215-.027-24.289-.027-48.574-.043-72.863 0-11.508 0-23.012-.012-34.52q-.023-75.948-.043-151.863c-.015-39.941-.027-79.87-.07-119.812-.027-46.95-.055-93.899-.055-140.848v-3.477c-.015-18.343-.03-36.691-.043-55.035-.027-18.488-.027-36.972-.015-55.457 0-9.992 0-19.984-.012-29.976-.156-72.864 1.598-141.844 37.305-207.422l2.847-5.34c11.868-21.625 26.11-41.074 43.067-58.945 1.668-1.977 3.336-3.953 4.976-5.93 20.04-22.898 45.153-41.93 71.57-56.828l3.169-1.809c64.257-36.183 133.199-42.844 205.582-42.8"/>
  </g>
  <path style="stroke:none;fill-rule:nonzero;fill:#1e445c;fill-opacity:1" d="m43.672 2.734 5.562-.027c5.102-.016 10.188 0 15.278.012 5.492.015 10.988-.012 16.48-.028 10.766-.027 21.543-.011 32.32 0 8.77.016 17.543.016 26.317.016l3.8-.016h7.622c23.867-.011 47.722 0 71.59.028q30.567.046 61.132 0c26.262-.04 52.528-.04 78.79-.012h3.8c8.715 0 17.434 0 26.164-.027 10.696-.016 21.387 0 32.078.027q8.162.018 16.317 0c41.047-.113 81.297 2.93 120.43 16.117l5.855 1.863c40.043 13.329 75.652 38.036 105.883 67.02l2.496 2.367c12.176 11.617 22.996 23.684 32.723 37.434.632.91 1.277 1.808 1.933 2.746 29.235 41.61 48.828 90.55 53.903 141.355 4.863 58.664-4.036 114.106-28.579 167.52-20.71 43.543-55.468 84.144-94.808 111.922-14.617 10.062-29.348 19.562-45.73 26.515l-3.868 1.637c-47.82 20.059-93.605 25.074-145.097 25.16a3517 3517 0 0 0-18.106.098c-11.367.055-22.73.11-34.113.14-12.961.04-25.926.11-38.903.18-26.617.14-53.23.254-79.859.336l.14 2.903.618 13.203.21 4.566c.532 11.578.856 23.125.856 34.73l.055 5.086c.027 12.586-.797 24.836-5.508 36.622-2.562 4.05-4.906 6.992-8.605 10.05-5.871 2.844-10.61 3.446-17.098 3.473l-5.758.027h-6.281a911 911 0 0 1-6.629.032q-9.016.04-18.008.039c-3.758 0-7.512 0-11.27.015-13.1.028-26.206.043-39.308.043-12.207 0-24.402.028-36.61.07-10.48.04-20.98.07-31.46.055-6.266 0-12.516.016-18.781.043-5.887.028-11.774.043-17.66.012-2.157 0-4.317 0-6.462.016-18.257.152-18.257.152-26.12-3.645-6.294-4.062-11.06-7.832-14.59-14.531-2.47-8.633-2.86-17.227-2.875-26.153v-3.351c-.012-3.684-.012-7.371 0-11.07l-.012-8.032c-.016-7.343-.016-14.699-.016-22.043 0-7.933 0-15.867-.012-23.785-.015-16.074-.015-31.601-.015-46.597 0-12.614 0-25.243-.016-37.872-.012-35.777-.012-71.558-.012-107.351v-11.688c0-31.308-.015-62.617-.027-93.941q-.042-48.207-.043-96.438c0-18.035 0-36.085-.015-54.136-.012-15.364-.012-30.735-.012-46.098.012-7.832.012-15.68 0-23.516-.016-7.175-.016-14.363 0-21.539 0-2.593 0-5.187-.016-7.78C3.66 26.558 3.66 26.558 9.18 16.89l2.23-2.371 2.172-2.422c10.106-8.86 16.746-9.461 30.09-9.364"/>
  <path style="stroke:none;fill-rule:nonzero;fill:#c4edf3;fill-opacity:1" d="m81.441 49.77 4.457.082 4.793-.028c5.313-.027 10.61.016 15.907.055 3.797 0 7.609 0 11.406-.012 9.266-.015 18.527.012 27.793.055 10.82.043 21.64.07 32.457.07 19.34 0 38.684.043 58.008.125q28.041.105 56.09.13h17.32c17.898.01 35.793.038 53.676.081q9.672.026 19.34.027 16.84.041 33.68.098c3.698.016 7.398.031 11.097.031 53.93.055 107.676 3.977 155.637 31.055 37.964 21.988 71.851 51.84 94.304 89.89 9.11 15.934 16.719 32.305 23.239 49.458l1.582 4.136c4.132 11.477 6.293 22.926 8.199 34.91.629 5.102.629 5.102 2.465 8.41 6.25 44.302-.504 90.212-17.153 131.583-10.96 25.637-26.949 48.508-45.172 69.445-3.601 4.05-3.601 4.05-6.558 8.688h-3.055l-1.191 2.75c-5.578 10.046-18.54 18.414-27.903 24.804h-3.054v3.07a211 211 0 0 1-11.97 7.75l-3.757 2.255c-22.703 13.457-45.883 23.421-71.531 29.796l-2.86.73c-35.218 8.536-74.152 5.829-110.167 5.688-5.524-.011-11.06-.027-16.594-.027-25.86-.043-51.715-.168-77.574-.73l-5.59-.125c-8.297-.18-16.594-.407-24.907-.672-24.453-.84-24.453-.84-48.558 2.789-5.594 3.195-8.676 5.34-12.25 10.707-.422 3.574-.422 3.574-.309 7.597l.043 4.664.07 5.063.04 5.227c.043 7.386.129 14.757.21 22.14.06 5.399.098 10.778.13 16.176l.082 4.988c.054 9.797-.125 19.692-3.336 29.055-3.446 2.394-3.446 2.394-7.653 3.066l-4.203.785c-13.176 1.961-27.539 2.118-40.18-2.312-3.644-6.305-3.714-13.047-4.007-20.152l-.168-3.672c-.578-13.176-.703-26.348-.73-39.535l-.016-3.84c-.028-6.645-.04-13.301-.04-19.946-.015-6.84-.058-13.675-.097-20.503-.031-5.31-.031-10.61-.043-15.907 0-2.523-.016-5.043-.028-7.566-.03-3.52-.03-7.024-.015-10.54l-.016-6.027c.606-5.87 2.106-9.558 5.16-14.574 3.63-3.293 6.012-4.57 10.707-6.125 3.547-.14 7.106-.183 10.653-.183h3.304c3.66 0 7.333.015 11.004.027l7.875.016c5.66 0 11.325.015 16.985.015 9 .028 17.996.04 26.98.04 20.77.015 41.524.058 62.281.085 18.934.028 37.883.055 56.829.07q11.186.019 22.37.044c37.743.152 37.743.152 75.47-.73l4.16-.153c33.566-1.598 64.414-12.028 92.89-29.684 6.406-4.164 12.196-8.902 17.926-13.945l3.727-3.125c16.804-14.438 29.882-31.156 40.66-50.453l2.465-4.414c15.418-29.207 22.789-62.047 22.27-95.094-1.263-24.117-5.774-48.281-15.544-70.41l-1.371-3.11c-13.36-29.894-33.863-55.988-60.223-75.527-28.41-20.238-59.968-33.453-94.894-37.082-37.25-3.363-74.953-2.398-112.317-2.41h-14.98c-17.461-.016-34.91-.028-52.375-.028-16.242 0-32.469-.015-48.7-.027-14.015-.031-28.015-.043-42.03-.031-8.325 0-16.665-.012-25-.027q-11.729-.018-23.434 0c-2.875 0-5.734 0-8.594-.012-3.91-.016-7.82 0-11.73.012l-3.403-.028c-7.105.043-13.203 1.035-19.886 3.461-3.786 3.98-5.664 7.402-7.04 12.727-2.085 10.96-2.519 21.414-2.378 32.554l.066 9.266c.016 3.574.059 7.16.086 10.734.086 9.336.14 18.653.184 27.989.082 16.972.195 33.93.336 50.886.07 9.91.14 19.817.195 29.739l.21 29.195c.028 3.672.055 7.328.071 11 .027 5.117.07 10.219.125 15.332l.016 4.484c.11 9.938.824 19.79 3.531 29.391 3.375 4.469 5.969 6.77 10.875 9.348 6.11 1.89 11.785 1.793 18.148 1.75l4.192.015q6.957.024 13.914 0c3.324 0 6.644 0 9.98.016 9.028.012 18.067.012 27.09 0 9.461-.016 18.922 0 28.367 0 15.891.012 31.786 0 47.68-.016 18.344-.015 36.703-.015 55.047 0 15.77.016 31.535.028 47.289.016h28.238c8.856.012 17.715.012 26.57-.016 3.255 0 6.493 0 9.743.016 4.441 0 8.87-.016 13.312-.031l3.871.03c15.907-.112 30.329-3.898 44.508-11.128 12.336-7.598 22.719-16.242 30.078-28.816 8.297-15.864 11.926-30.145 12.403-48.012l.195-4.82c.59-15.164.59-15.164-4.121-29.336l-1.82-5.352c3.824-8.215 8.855-14.129 15.304-20.379.797-.812 1.598-1.613 2.422-2.437 7.961-7.848 7.961-7.848 12.895-9.336 3.91.097 3.91.097 7.652 1.527 2.594 3.395 2.594 3.395 4.781 7.57 3.375 6.332 3.375 6.332 8.996 10.805 1.192 2.734 1.192 2.734 2.059 6l.984 3.613.98 3.786.993 3.699c6.531 24.527 7.57 53.312 1.066 77.992-7.988 26.656-22.828 48.547-42.87 67.648-17.016 15.7-38.696 26.477-61.188 31.676-21.149 3.715-42.508 4.836-63.965 4.723l-6.152-.028c-6.727-.015-13.47-.058-20.196-.113l-3.515-.015c-15.293-.098-30.567-.239-45.86-.364l-30.02-.25-4.468-.031-18.11-.14a31623 31623 0 0 1-50.93-.419c-13.62-.125-27.257-.238-40.878-.324-7.176-.055-14.34-.11-21.516-.18-6.71-.07-13.425-.128-20.136-.156-2.453-.011-4.907-.043-7.36-.07-13.875-.18-27.187.129-40.402 5.02-4.656 2.914-4.656 2.914-6.406 5.94-7.051 18.376-4.68 41.188-4.54 60.43.04 5.692.055 11.383.067 17.07.043 12.04.102 24.095.156 36.145.082 14.032.14 28.059.184 42.086.012 5.594.055 11.2.082 16.805.016 3.422.027 6.84.043 10.258l.043 4.71c0 5.763-.098 10.778-1.586 16.372-1.82 2.957-1.82 2.957-6.7 5.644-13.804 5.032-28.113 4.079-42.323 1.641-3.32-1.262-3.32-1.262-5.958-3.77-3.98-7.37-3.671-16.062-3.671-24.289l-.012-5.898.012-6.434-.012-6.867v-18.863c.012-6.785 0-13.566 0-20.348q-.024-19.932 0-39.86V493.31c-.016-29.32 0-58.637 0-87.957.012-25.114.012-50.243 0-75.372V196.07c-.016-13.16-.016-26.32 0-39.468V118.02c.012-2.215 0-4.43 0-6.63-.016-11.042.14-22.074.687-33.1l.266-5.552c.84-5.324 2.227-8.242 5.367-12.586 6.418-7.793 12.207-10.23 22.2-10.382"/>
  <path style="stroke:none;fill-rule:nonzero;fill:#14adcc;fill-opacity:1" d="m223.79 159.46 7.413-.01h19.984c7.008.01 14.032 0 21.036 0 11.789 0 23.574 0 35.375.01h40.644c11.7-.01 23.403-.01 35.106-.01 6.953.01 13.918.01 20.867 0 49.738-.032 49.738-.032 68.098.812l3.421.152c24.23 1.387 47.2 10.637 67.579 23.45 19.816 13.198 34.91 30.804 46.699 51.433 1.68 3.418 2.773 6.348 3.488 10.09-2.805-1.094-2.805-1.094-6.125-3.07-2.27-3.31-2.27-3.31-4.219-7.079l-1.976-3.781-1.457-2.918c-4.149-.039-4.149-.039-9.192 1.527-9.293 6.422-17.785 15.461-24.484 24.5-1.375 3.055-1.375 3.055-1.543 6.125 1.094 2.633 2.2 5.254 3.418 7.832 1.797 4.418 2.23 8.887 2.707 13.598h-3.055l-.969-3.422c-5.34-17.59-13.789-30.887-27.09-43.586-11.632-9.965-23.84-16.734-38.89-19.62-5.059-.727-9.84-.927-14.969-.927l-5.984-.027h-6.516l-6.894-.012c-6.254-.015-12.489-.015-18.727-.015-3.894 0-7.789 0-11.7-.016-13.624-.012-27.245-.012-40.866-.012-12.684 0-25.356-.015-38.04-.043-10.902-.011-21.804-.027-32.71-.027-6.5 0-13.004 0-19.508-.016-6.11-.011-12.234-.011-18.36-.011-2.242.011-4.468 0-6.71 0-11.66-.059-22.27.32-33.54 3.445-3.476 11.059-3.406 21.457-3.25 32.992l.055 9.094q.064 9.545.168 19.09c.055 5.242.098 10.484.125 15.738.016 3.91.059 7.836.113 11.758.125 22.762.125 22.762-3.335 30.723-4.875 3.152-9.57 3.91-15.305 4.593-4.063.184-8.086.282-12.149.282l-3.14.07c-7.133.015-13.274-.77-19.914-3.406-3.645-5.633-3.856-11.125-4.344-17.672-.535-11.281-.477-22.563-.45-33.86l-.015-8.254c0-5.746 0-11.492.016-17.238 0-7.332 0-14.66-.016-21.988v-25.129c-.043-36.285-.043-36.285 4.512-44.918 3.098-3.617 5.469-6.012 9.476-8.52 14.645-2.789 30.27-1.753 45.141-1.726"/>
  <path style="stroke:none;fill-rule:nonzero;fill:#f9f9f9;fill-opacity:1" d="m309.629 261.992 4.71-.012c5.102-.015 10.204-.015 15.317-.015l10.723-.012c7.484-.015 14.953-.015 22.437-.015 9.543 0 19.086-.012 28.645-.043 7.375-.012 14.758-.028 22.129-.028 3.52 0 7.039 0 10.555-.012 42.816-.14 42.816-.14 55.12 6.012 5.985 5.27 11.395 10.61 14.954 17.813 2.508 7.863 2.09 15.863 1.304 23.992-1.992 7.289-6.043 12.5-11.101 17.996-6.152 5.789-12.922 9.781-21.133 11.91-6.14.969-12.164.996-18.375 1.055-1.387.012-2.773.027-4.203.055-4.582.054-9.168.097-13.75.14l-9.629.11-20.234.21c-8.551.086-17.114.184-25.676.282l-19.93.21c-3.152.028-6.293.07-9.445.114-15.738.18-31.492.207-47.23-.309l-3.825-.058c-3.367-.153-6.476-.38-9.785-1.094-4.598-2.969-4.598-2.969-7.652-6.121-2.52-5.567-1.809-12.152-1.836-18.18l-.028-3.515c-.011-2.454-.027-4.907-.027-7.36-.016-3.742-.07-7.484-.113-11.226l-.028-7.176-.054-3.363c.027-5.114.449-8.66 2.691-13.286 2.465-3.25 2.465-3.25 5.52-6.32 9.683-2.2 20.07-1.754 29.949-1.754"/>
  <path style="stroke:none;fill-rule:nonzero;fill:#4ed0e5;fill-opacity:1" d="m223.79 159.46 7.413-.01h19.984c7.008.01 14.032 0 21.036 0 11.789 0 23.574 0 35.375.01h40.644c11.7-.01 23.403-.01 35.106-.01 6.953.01 13.918.01 20.867 0 78.496-.044 78.496-.044 95.902 4.804l1.531 3.055c-9.07.156-18.082.086-27.132-.547-15.207-1.035-30.36-1.16-45.606-1.106l-8.183.016-17.45.039c-9.18.031-18.375.043-27.566.059-26.125.039-52.234.097-78.344.152-14.476.043-28.941.07-43.418.086a8088 8088 0 0 0-27.426.07c-5.664.012-11.324.027-16.988.027-2.633 0-5.27.012-7.902.028-3.574.015-7.164.015-10.735.015l-6.085.012-4.637-.379-3.055-3.054 1.527-1.54c14.954-1.976 30.09-1.753 45.141-1.726"/>
</svg>
