<svg xmlns="http://www.w3.org/2000/svg" xmlns:xlink="http://www.w3.org/1999/xlink" zoomAndPan="magnify" preserveAspectRatio="xMidYMid meet" version="1.2" viewBox="189.15 159.58 405.27 403.87">
  <rect x="189.15" y="159.58" width="405.27" height="403.87" fill="#f9f9f9"/>

  <g id="5848cb516e">
    <path style=" stroke:none;fill-rule:nonzero;fill:#f9f9f9;fill-opacity:1;" d="M 291.882812 159.695312 L 294.667969 159.691406 C 297.191406 159.6875 299.71875 159.6875 302.242188 159.6875 C 304.976562 159.683594 307.707031 159.683594 310.441406 159.679688 C 316.714844 159.671875 322.988281 159.667969 329.261719 159.667969 C 332.367188 159.667969 335.472656 159.667969 338.582031 159.664062 C 351.917969 159.660156 365.25 159.65625 378.582031 159.652344 L 379.589844 159.652344 C 390.371094 159.648438 401.152344 159.644531 411.933594 159.632812 C 424.617188 159.625 437.300781 159.617188 449.980469 159.617188 L 450.917969 159.617188 C 455.871094 159.613281 460.824219 159.609375 465.777344 159.605469 C 470.765625 159.597656 475.757812 159.597656 480.746094 159.601562 C 483.441406 159.601562 486.136719 159.601562 488.832031 159.597656 C 510.367188 159.550781 530.0625 160.917969 549.199219 171.875 C 562.597656 179.746094 573.988281 190.945312 581.804688 204.394531 C 582.550781 205.71875 583.277344 207.050781 583.992188 208.394531 L 584.460938 209.269531 C 592.105469 223.765625 594.449219 239.929688 594.394531 256.113281 C 594.394531 257.085938 594.398438 258.054688 594.398438 259.027344 C 594.40625 261.65625 594.402344 264.289062 594.398438 266.917969 C 594.394531 269.472656 594.398438 272.03125 594.402344 274.589844 C 594.410156 280.132812 594.410156 285.675781 594.40625 291.21875 C 594.398438 297.710938 594.398438 304.199219 594.402344 310.6875 C 594.40625 322.96875 594.402344 335.246094 594.398438 347.523438 C 594.390625 358.410156 594.390625 369.296875 594.398438 380.183594 C 594.40625 393.753906 594.40625 407.320312 594.402344 420.890625 L 594.402344 421.867188 C 594.402344 426.710938 594.402344 431.558594 594.40625 436.40625 C 594.410156 441.917969 594.40625 447.433594 594.402344 452.949219 C 594.398438 455.757812 594.398438 458.570312 594.402344 461.378906 C 594.40625 463.957031 594.402344 466.535156 594.394531 469.113281 C 594.394531 470.039062 594.394531 470.96875 594.398438 471.894531 C 594.449219 488.34375 591 504.050781 582.851562 518.421875 C 580.910156 521.765625 578.730469 524.949219 576.3125 527.96875 L 575.414062 529.113281 C 571.835938 533.59375 567.976562 538.007812 563.511719 541.621094 L 562.167969 542.757812 C 553.003906 550.394531 542.195312 556.390625 530.65625 559.539062 L 529.605469 559.828125 C 528.492188 560.125 527.375 560.410156 526.257812 560.6875 L 525.28125 560.933594 C 524.089844 561.214844 522.898438 561.445312 521.699219 561.675781 L 520.894531 561.832031 C 513.550781 563.210938 506.183594 563.160156 498.746094 563.171875 C 496.800781 563.175781 494.859375 563.183594 492.914062 563.195312 C 489.011719 563.214844 485.109375 563.226562 481.203125 563.238281 C 477.964844 563.246094 474.726562 563.253906 471.484375 563.269531 C 432.128906 563.417969 392.769531 563.421875 353.414062 563.433594 L 352.179688 563.433594 L 342.296875 563.4375 C 332.421875 563.441406 322.550781 563.441406 312.671875 563.4375 C 310.117188 563.4375 307.558594 563.4375 305.003906 563.4375 C 301.914062 563.441406 298.824219 563.441406 295.734375 563.4375 C 294.171875 563.4375 292.613281 563.4375 291.050781 563.4375 C 270.863281 563.453125 270.863281 563.453125 263.246094 562.234375 L 261.800781 562.007812 C 247.121094 559.585938 233.414062 553.109375 221.875 543.765625 C 216.355469 539.195312 211.488281 534.167969 207.246094 528.394531 C 206.910156 527.941406 206.578125 527.488281 206.234375 527.023438 C 203.90625 523.761719 201.898438 520.367188 200.003906 516.835938 C 199.605469 516.101562 199.203125 515.367188 198.792969 514.632812 C 193.734375 505.121094 190.769531 494.300781 189.75 483.59375 L 189.644531 482.554688 C 189.226562 477.925781 189.261719 473.300781 189.265625 468.65625 L 189.261719 465.796875 C 189.257812 463.1875 189.257812 460.578125 189.257812 457.96875 C 189.253906 455.441406 189.253906 452.910156 189.25 450.382812 C 189.242188 443.613281 189.242188 436.84375 189.238281 430.074219 C 189.238281 426.867188 189.238281 423.660156 189.234375 420.453125 C 189.230469 406.339844 189.226562 392.230469 189.222656 378.125 C 189.21875 366.992188 189.214844 355.863281 189.203125 344.730469 C 189.195312 331.644531 189.1875 318.558594 189.1875 305.472656 L 189.1875 304.503906 C 189.183594 299.390625 189.179688 294.277344 189.175781 289.164062 C 189.167969 284.011719 189.167969 278.859375 189.171875 273.707031 C 189.171875 270.921875 189.171875 268.136719 189.167969 265.351562 C 189.125 245.042969 189.613281 225.816406 199.566406 207.539062 L 200.359375 206.050781 C 203.667969 200.023438 207.636719 194.601562 212.363281 189.621094 C 212.828125 189.070312 213.292969 188.519531 213.75 187.96875 C 219.335938 181.585938 226.335938 176.28125 233.699219 172.128906 L 234.582031 171.625 C 252.492188 161.539062 271.707031 159.683594 291.882812 159.695312 "/>
    <path style=" stroke:none;fill-rule:nonzero;fill:#1e445c;fill-opacity:1;" d="M 296.769531 262.789062 L 298.320312 262.78125 C 299.742188 262.777344 301.160156 262.78125 302.578125 262.785156 C 304.109375 262.789062 305.640625 262.78125 307.171875 262.777344 C 310.171875 262.769531 313.175781 262.773438 316.179688 262.777344 C 318.625 262.78125 321.070312 262.78125 323.515625 262.78125 L 324.574219 262.777344 L 326.699219 262.777344 C 333.351562 262.773438 340 262.777344 346.652344 262.785156 C 352.332031 262.792969 358.011719 262.792969 363.691406 262.785156 C 371.011719 262.773438 378.332031 262.773438 385.652344 262.78125 L 386.710938 262.78125 C 389.140625 262.78125 391.570312 262.78125 394.003906 262.773438 C 396.984375 262.769531 399.964844 262.773438 402.945312 262.78125 C 404.460938 262.785156 405.976562 262.785156 407.492188 262.78125 C 418.933594 262.75 430.152344 263.597656 441.058594 267.273438 L 442.691406 267.792969 C 453.851562 271.507812 463.777344 278.394531 472.203125 286.472656 L 472.898438 287.132812 C 476.292969 290.371094 479.308594 293.734375 482.019531 297.566406 C 482.195312 297.820312 482.375 298.070312 482.558594 298.332031 C 490.707031 309.929688 496.167969 323.570312 497.582031 337.730469 C 498.9375 354.082031 496.457031 369.535156 489.617188 384.421875 C 483.84375 396.558594 474.15625 407.875 463.191406 415.617188 C 459.117188 418.421875 455.011719 421.070312 450.445312 423.007812 L 449.367188 423.464844 C 436.039062 429.054688 423.277344 430.453125 408.925781 430.476562 C 407.242188 430.480469 405.558594 430.492188 403.878906 430.503906 C 400.710938 430.519531 397.542969 430.535156 394.371094 430.542969 C 390.757812 430.554688 387.144531 430.574219 383.527344 430.59375 C 376.109375 430.632812 368.691406 430.664062 361.269531 430.6875 L 361.308594 431.496094 L 361.480469 435.175781 L 361.539062 436.449219 C 361.6875 439.675781 361.777344 442.894531 361.777344 446.128906 L 361.792969 447.546875 C 361.800781 451.054688 361.570312 454.46875 360.257812 457.753906 C 359.542969 458.882812 358.890625 459.703125 357.859375 460.554688 C 356.222656 461.347656 354.902344 461.515625 353.09375 461.523438 L 351.488281 461.53125 L 349.738281 461.53125 C 349.125 461.535156 348.507812 461.539062 347.890625 461.539062 C 346.214844 461.546875 344.542969 461.550781 342.871094 461.550781 C 341.824219 461.550781 340.777344 461.550781 339.730469 461.554688 C 336.078125 461.5625 332.425781 461.566406 328.773438 461.566406 C 325.371094 461.566406 321.972656 461.574219 318.570312 461.585938 C 315.648438 461.597656 312.722656 461.605469 309.800781 461.601562 C 308.054688 461.601562 306.3125 461.605469 304.566406 461.613281 C 302.925781 461.621094 301.285156 461.625 299.644531 461.617188 C 299.042969 461.617188 298.441406 461.617188 297.84375 461.621094 C 292.753906 461.664062 292.753906 461.664062 290.5625 460.605469 C 288.808594 459.472656 287.480469 458.421875 286.496094 456.554688 C 285.808594 454.148438 285.699219 451.753906 285.695312 449.265625 L 285.695312 448.332031 C 285.691406 447.304688 285.691406 446.277344 285.695312 445.246094 L 285.691406 443.007812 C 285.6875 440.960938 285.6875 438.910156 285.6875 436.863281 C 285.6875 434.652344 285.6875 432.441406 285.683594 430.234375 C 285.679688 425.753906 285.679688 421.425781 285.679688 417.246094 C 285.679688 413.730469 285.679688 410.210938 285.675781 406.691406 C 285.671875 396.71875 285.671875 386.746094 285.671875 376.769531 L 285.671875 373.511719 C 285.671875 364.785156 285.667969 356.058594 285.664062 347.328125 C 285.65625 338.371094 285.652344 329.410156 285.652344 320.449219 C 285.652344 315.421875 285.652344 310.390625 285.648438 305.359375 C 285.644531 301.078125 285.644531 296.792969 285.644531 292.511719 C 285.648438 290.328125 285.648438 288.140625 285.644531 285.957031 C 285.640625 283.957031 285.640625 281.953125 285.644531 279.953125 C 285.644531 279.230469 285.644531 278.507812 285.640625 277.785156 C 285.617188 269.429688 285.617188 269.429688 287.15625 266.734375 C 287.464844 266.40625 287.464844 266.40625 287.777344 266.074219 L 288.382812 265.398438 C 291.199219 262.929688 293.050781 262.761719 296.769531 262.789062 "/>
    <path style=" stroke:none;fill-rule:nonzero;fill:#c4edf3;fill-opacity:1;" d="M 307.296875 275.898438 L 308.539062 275.921875 L 309.875 275.914062 C 311.355469 275.90625 312.832031 275.917969 314.308594 275.929688 C 315.367188 275.929688 316.429688 275.929688 317.488281 275.925781 C 320.070312 275.921875 322.652344 275.929688 325.234375 275.941406 C 328.25 275.953125 331.265625 275.960938 334.28125 275.960938 C 339.671875 275.960938 345.0625 275.972656 350.449219 275.996094 C 355.660156 276.015625 360.871094 276.027344 366.082031 276.03125 L 370.910156 276.03125 C 375.898438 276.035156 380.886719 276.042969 385.871094 276.054688 C 387.667969 276.058594 389.464844 276.0625 391.261719 276.0625 C 394.390625 276.070312 397.519531 276.078125 400.648438 276.089844 C 401.679688 276.09375 402.710938 276.097656 403.742188 276.097656 C 418.773438 276.113281 433.753906 277.207031 447.121094 284.753906 C 457.703125 290.882812 467.148438 299.203125 473.40625 309.808594 C 475.945312 314.25 478.066406 318.8125 479.882812 323.59375 L 480.324219 324.746094 C 481.476562 327.945312 482.078125 331.136719 482.609375 334.476562 C 482.785156 335.898438 482.785156 335.898438 483.296875 336.820312 C 485.039062 349.167969 483.15625 361.964844 478.515625 373.496094 C 475.460938 380.640625 471.003906 387.015625 465.925781 392.851562 C 464.921875 393.980469 464.921875 393.980469 464.097656 395.273438 L 463.246094 395.273438 L 462.914062 396.039062 C 461.359375 398.839844 457.746094 401.171875 455.136719 402.953125 L 454.285156 402.953125 L 454.285156 403.808594 C 453.199219 404.566406 452.085938 405.285156 450.949219 405.96875 L 449.902344 406.597656 C 443.574219 410.347656 437.113281 413.125 429.964844 414.902344 L 429.167969 415.105469 C 419.351562 417.484375 408.5 416.730469 398.460938 416.691406 C 396.921875 416.6875 395.378906 416.683594 393.835938 416.683594 C 386.628906 416.671875 379.421875 416.636719 372.214844 416.480469 L 370.65625 416.445312 C 368.34375 416.394531 366.03125 416.332031 363.714844 416.257812 C 356.898438 416.023438 356.898438 416.023438 350.179688 417.035156 C 348.621094 417.925781 347.761719 418.523438 346.765625 420.019531 C 346.648438 421.015625 346.648438 421.015625 346.679688 422.136719 L 346.691406 423.4375 L 346.710938 424.847656 L 346.722656 426.304688 C 346.734375 428.363281 346.757812 430.417969 346.78125 432.476562 C 346.796875 433.980469 346.808594 435.480469 346.816406 436.984375 L 346.839844 438.375 C 346.855469 441.105469 346.804688 443.863281 345.910156 446.472656 C 344.949219 447.140625 344.949219 447.140625 343.777344 447.328125 L 342.605469 447.546875 C 338.933594 448.09375 334.929688 448.136719 331.40625 446.902344 C 330.390625 445.144531 330.371094 443.265625 330.289062 441.285156 L 330.242188 440.261719 C 330.082031 436.589844 330.046875 432.917969 330.039062 429.242188 L 330.035156 428.171875 C 330.027344 426.320312 330.023438 424.464844 330.023438 422.613281 C 330.019531 420.707031 330.007812 418.800781 329.996094 416.898438 C 329.988281 415.417969 329.988281 413.941406 329.984375 412.464844 C 329.984375 411.761719 329.980469 411.058594 329.976562 410.355469 C 329.96875 409.375 329.96875 408.398438 329.972656 407.417969 L 329.96875 405.738281 C 330.136719 404.101562 330.554688 403.074219 331.40625 401.675781 C 332.417969 400.757812 333.082031 400.402344 334.390625 399.96875 C 335.378906 399.929688 336.371094 399.917969 337.359375 399.917969 L 338.28125 399.917969 C 339.300781 399.917969 340.324219 399.921875 341.347656 399.925781 L 343.542969 399.929688 C 345.121094 399.929688 346.699219 399.933594 348.277344 399.933594 C 350.785156 399.941406 353.292969 399.945312 355.796875 399.945312 C 361.585938 399.949219 367.371094 399.960938 373.15625 399.96875 C 378.433594 399.976562 383.714844 399.984375 388.996094 399.988281 C 391.074219 399.992188 393.152344 399.996094 395.230469 400 C 405.75 400.042969 405.75 400.042969 416.265625 399.796875 L 417.425781 399.753906 C 426.78125 399.308594 435.378906 396.402344 443.316406 391.480469 C 445.101562 390.320312 446.714844 389 448.3125 387.59375 L 449.351562 386.722656 C 454.035156 382.699219 457.679688 378.039062 460.683594 372.660156 L 461.371094 371.429688 C 465.667969 363.289062 467.722656 354.136719 467.578125 344.925781 C 467.226562 338.203125 465.96875 331.46875 463.246094 325.300781 L 462.863281 324.433594 C 459.140625 316.101562 453.425781 308.828125 446.078125 303.382812 C 438.160156 297.742188 429.363281 294.058594 419.628906 293.046875 C 409.246094 292.109375 398.738281 292.378906 388.324219 292.375 C 386.933594 292.375 385.542969 292.375 384.148438 292.375 C 379.28125 292.371094 374.417969 292.367188 369.550781 292.367188 C 365.023438 292.367188 360.5 292.363281 355.976562 292.359375 C 352.070312 292.351562 348.167969 292.347656 344.261719 292.351562 C 341.941406 292.351562 339.617188 292.347656 337.292969 292.34375 C 335.113281 292.339844 332.9375 292.339844 330.761719 292.34375 C 329.960938 292.34375 329.164062 292.34375 328.367188 292.339844 C 327.277344 292.335938 326.1875 292.339844 325.097656 292.34375 L 324.148438 292.335938 C 322.167969 292.347656 320.46875 292.625 318.605469 293.300781 C 317.550781 294.410156 317.027344 295.363281 316.644531 296.847656 C 316.0625 299.902344 315.941406 302.816406 315.980469 305.921875 L 316 308.503906 C 316.003906 309.5 316.015625 310.5 316.023438 311.496094 C 316.046875 314.097656 316.0625 316.695312 316.074219 319.296875 C 316.097656 324.027344 316.128906 328.753906 316.167969 333.480469 C 316.1875 336.242188 316.207031 339.003906 316.222656 341.769531 C 316.242188 344.480469 316.261719 347.191406 316.28125 349.90625 C 316.289062 350.929688 316.296875 351.949219 316.300781 352.972656 C 316.308594 354.398438 316.320312 355.820312 316.335938 357.246094 L 316.339844 358.496094 C 316.371094 361.265625 316.570312 364.011719 317.324219 366.6875 C 318.265625 367.933594 318.988281 368.574219 320.355469 369.292969 C 322.058594 369.820312 323.640625 369.792969 325.414062 369.78125 L 326.582031 369.785156 C 327.875 369.789062 329.167969 369.789062 330.460938 369.785156 C 331.386719 369.785156 332.3125 369.785156 333.242188 369.789062 C 335.757812 369.792969 338.277344 369.792969 340.792969 369.789062 C 343.429688 369.785156 346.066406 369.789062 348.699219 369.789062 C 353.128906 369.792969 357.558594 369.789062 361.988281 369.785156 C 367.101562 369.78125 372.21875 369.78125 377.332031 369.785156 C 381.726562 369.789062 386.121094 369.792969 390.511719 369.789062 C 393.136719 369.789062 395.761719 369.789062 398.382812 369.789062 C 400.851562 369.792969 403.320312 369.792969 405.789062 369.785156 C 406.695312 369.785156 407.597656 369.785156 408.503906 369.789062 C 409.742188 369.789062 410.976562 369.785156 412.214844 369.78125 L 413.292969 369.789062 C 417.726562 369.757812 421.746094 368.703125 425.699219 366.6875 C 429.136719 364.570312 432.03125 362.160156 434.082031 358.65625 C 436.394531 354.234375 437.40625 350.253906 437.539062 345.273438 L 437.59375 343.929688 C 437.757812 339.703125 437.757812 339.703125 436.445312 335.753906 L 435.9375 334.261719 C 437.003906 331.972656 438.40625 330.324219 440.203125 328.582031 C 440.425781 328.355469 440.648438 328.132812 440.878906 327.902344 C 443.097656 325.714844 443.097656 325.714844 444.472656 325.300781 C 445.5625 325.328125 445.5625 325.328125 446.605469 325.726562 C 447.328125 326.671875 447.328125 326.671875 447.9375 327.835938 C 448.878906 329.601562 448.878906 329.601562 450.445312 330.847656 C 450.777344 331.609375 450.777344 331.609375 451.019531 332.519531 L 451.292969 333.527344 L 451.566406 334.582031 L 451.84375 335.613281 C 453.664062 342.449219 453.953125 350.472656 452.140625 357.351562 C 449.914062 364.78125 445.777344 370.882812 440.191406 376.207031 C 435.449219 380.582031 429.40625 383.585938 423.136719 385.035156 C 417.242188 386.070312 411.289062 386.382812 405.308594 386.351562 L 403.59375 386.34375 C 401.71875 386.339844 399.839844 386.328125 397.964844 386.3125 L 396.984375 386.308594 C 392.722656 386.28125 388.464844 386.242188 384.203125 386.207031 C 381.414062 386.183594 378.625 386.160156 375.835938 386.136719 L 374.589844 386.128906 L 369.542969 386.089844 C 364.8125 386.054688 360.078125 386.015625 355.347656 385.972656 C 351.550781 385.9375 347.75 385.90625 343.953125 385.882812 C 341.953125 385.867188 339.957031 385.851562 337.957031 385.832031 C 336.085938 385.8125 334.214844 385.796875 332.34375 385.789062 C 331.660156 385.785156 330.976562 385.777344 330.292969 385.769531 C 326.425781 385.71875 322.714844 385.804688 319.03125 387.167969 C 317.734375 387.980469 317.734375 387.980469 317.246094 388.824219 C 315.28125 393.945312 315.941406 400.304688 315.980469 405.667969 C 315.992188 407.253906 315.996094 408.839844 316 410.425781 C 316.011719 413.78125 316.027344 417.140625 316.042969 420.5 C 316.066406 424.410156 316.082031 428.320312 316.09375 432.230469 C 316.097656 433.789062 316.109375 435.351562 316.117188 436.914062 C 316.121094 437.867188 316.125 438.820312 316.128906 439.773438 L 316.140625 441.085938 C 316.140625 442.691406 316.113281 444.089844 315.699219 445.648438 C 315.191406 446.472656 315.191406 446.472656 313.832031 447.222656 C 309.984375 448.625 305.996094 448.359375 302.035156 447.679688 C 301.109375 447.328125 301.109375 447.328125 300.375 446.628906 C 299.265625 444.574219 299.351562 442.152344 299.351562 439.859375 L 299.347656 438.214844 L 299.351562 436.421875 L 299.347656 434.507812 C 299.347656 432.753906 299.347656 431.003906 299.347656 429.25 C 299.351562 427.359375 299.347656 425.46875 299.347656 423.578125 C 299.34375 419.875 299.34375 416.171875 299.347656 412.46875 C 299.347656 409.457031 299.347656 406.445312 299.347656 403.433594 L 299.347656 399.523438 C 299.34375 391.351562 299.347656 383.179688 299.347656 375.007812 C 299.351562 368.007812 299.351562 361.003906 299.347656 354 C 299.347656 344.996094 299.347656 335.988281 299.347656 326.984375 L 299.347656 325.6875 C 299.347656 322.683594 299.347656 319.679688 299.347656 316.675781 C 299.34375 313.007812 299.34375 309.339844 299.347656 305.675781 C 299.347656 303.804688 299.347656 301.9375 299.347656 300.066406 C 299.347656 298.351562 299.347656 296.636719 299.347656 294.921875 C 299.351562 294.304688 299.347656 293.6875 299.347656 293.074219 C 299.34375 289.996094 299.386719 286.921875 299.539062 283.847656 L 299.613281 282.300781 C 299.847656 280.816406 300.234375 280.003906 301.109375 278.792969 C 302.898438 276.621094 304.511719 275.941406 307.296875 275.898438 "/>
    <path style=" stroke:none;fill-rule:nonzero;fill:#14adcc;fill-opacity:1;" d="M 346.972656 306.472656 L 349.039062 306.46875 C 350.894531 306.46875 352.75 306.46875 354.609375 306.46875 C 356.5625 306.472656 358.519531 306.46875 360.472656 306.46875 C 363.757812 306.46875 367.042969 306.46875 370.332031 306.472656 C 374.105469 306.472656 377.882812 306.472656 381.660156 306.472656 C 384.921875 306.46875 388.183594 306.46875 391.445312 306.46875 C 393.382812 306.472656 395.324219 306.472656 397.261719 306.46875 C 411.125 306.460938 411.125 306.460938 416.242188 306.695312 L 417.195312 306.738281 C 423.949219 307.125 430.351562 309.703125 436.03125 313.273438 C 441.554688 316.953125 445.761719 321.859375 449.046875 327.609375 C 449.515625 328.5625 449.820312 329.378906 450.019531 330.421875 C 449.238281 330.117188 449.238281 330.117188 448.3125 329.566406 C 447.679688 328.644531 447.679688 328.644531 447.136719 327.59375 L 446.585938 326.539062 L 446.179688 325.726562 C 445.023438 325.714844 445.023438 325.714844 443.617188 326.152344 C 441.027344 327.941406 438.660156 330.460938 436.792969 332.980469 C 436.410156 333.832031 436.410156 333.832031 436.363281 334.6875 C 436.667969 335.421875 436.976562 336.152344 437.316406 336.871094 C 437.816406 338.101562 437.9375 339.347656 438.070312 340.660156 L 437.21875 340.660156 L 436.949219 339.707031 C 435.460938 334.804688 433.105469 331.097656 429.398438 327.558594 C 426.15625 324.78125 422.753906 322.894531 418.558594 322.089844 C 417.148438 321.886719 415.816406 321.832031 414.386719 321.832031 L 412.71875 321.824219 L 410.902344 321.824219 L 408.980469 321.820312 C 407.238281 321.816406 405.5 321.816406 403.761719 321.816406 C 402.675781 321.816406 401.589844 321.816406 400.5 321.8125 C 396.703125 321.808594 392.90625 321.808594 389.109375 321.808594 C 385.574219 321.808594 382.042969 321.804688 378.507812 321.796875 C 375.46875 321.792969 372.429688 321.789062 369.390625 321.789062 C 367.578125 321.789062 365.765625 321.789062 363.953125 321.785156 C 362.25 321.78125 360.542969 321.78125 358.835938 321.78125 C 358.210938 321.785156 357.589844 321.78125 356.964844 321.78125 C 353.714844 321.765625 350.757812 321.871094 347.617188 322.742188 C 346.648438 325.824219 346.667969 328.722656 346.710938 331.9375 L 346.726562 334.472656 C 346.738281 336.246094 346.753906 338.019531 346.773438 339.792969 C 346.789062 341.253906 346.800781 342.714844 346.808594 344.179688 C 346.8125 345.269531 346.824219 346.363281 346.839844 347.457031 C 346.875 353.800781 346.875 353.800781 345.910156 356.019531 C 344.550781 356.898438 343.242188 357.109375 341.644531 357.300781 C 340.511719 357.351562 339.390625 357.378906 338.257812 357.378906 L 337.382812 357.398438 C 335.394531 357.402344 333.683594 357.183594 331.832031 356.449219 C 330.816406 354.878906 330.757812 353.347656 330.621094 351.523438 C 330.472656 348.378906 330.488281 345.234375 330.496094 342.085938 L 330.492188 339.785156 C 330.492188 338.183594 330.492188 336.582031 330.496094 334.980469 C 330.496094 332.9375 330.496094 330.894531 330.492188 328.851562 C 330.492188 327.269531 330.492188 325.6875 330.492188 324.105469 C 330.492188 323.351562 330.492188 322.601562 330.492188 321.847656 C 330.480469 311.734375 330.480469 311.734375 331.75 309.328125 C 332.613281 308.320312 333.273438 307.652344 334.390625 306.953125 C 338.472656 306.175781 342.828125 306.464844 346.972656 306.472656 "/>
    <path style=" stroke:none;fill-rule:nonzero;fill:#f9f9f9;fill-opacity:1;" d="M 370.898438 335.050781 L 372.210938 335.046875 C 373.632812 335.042969 375.054688 335.042969 376.480469 335.042969 L 379.46875 335.039062 C 381.554688 335.035156 383.636719 335.035156 385.722656 335.035156 C 388.382812 335.035156 391.042969 335.03125 393.707031 335.023438 C 395.761719 335.019531 397.820312 335.015625 399.875 335.015625 C 400.855469 335.015625 401.835938 335.015625 402.816406 335.011719 C 414.75 334.972656 414.75 334.972656 418.179688 336.6875 C 419.847656 338.15625 421.355469 339.644531 422.347656 341.652344 C 423.046875 343.84375 422.929688 346.074219 422.710938 348.339844 C 422.15625 350.371094 421.027344 351.824219 419.617188 353.355469 C 417.902344 354.96875 416.015625 356.082031 413.726562 356.675781 C 412.015625 356.945312 410.335938 356.953125 408.605469 356.96875 C 408.21875 356.972656 407.832031 356.976562 407.433594 356.984375 C 406.15625 357 404.878906 357.011719 403.601562 357.023438 L 400.917969 357.054688 C 399.039062 357.074219 397.160156 357.09375 395.277344 357.113281 C 392.894531 357.136719 390.507812 357.164062 388.121094 357.191406 C 386.269531 357.210938 384.417969 357.230469 382.566406 357.25 C 381.6875 357.257812 380.8125 357.269531 379.933594 357.28125 C 375.546875 357.332031 371.15625 357.339844 366.769531 357.195312 L 365.703125 357.179688 C 364.765625 357.136719 363.898438 357.074219 362.976562 356.875 C 361.695312 356.046875 361.695312 356.046875 360.84375 355.167969 C 360.140625 353.617188 360.339844 351.78125 360.332031 350.101562 L 360.324219 349.121094 C 360.320312 348.4375 360.316406 347.753906 360.316406 347.070312 C 360.3125 346.027344 360.296875 344.984375 360.285156 343.941406 L 360.277344 341.941406 L 360.261719 341.003906 C 360.269531 339.578125 360.386719 338.589844 361.011719 337.300781 C 361.699219 336.394531 361.699219 336.394531 362.550781 335.539062 C 365.25 334.925781 368.144531 335.050781 370.898438 335.050781 "/>
    <path style=" stroke:none;fill-rule:nonzero;fill:#4ed0e5;fill-opacity:1;" d="M 346.972656 306.472656 L 349.039062 306.46875 C 350.894531 306.46875 352.75 306.46875 354.609375 306.46875 C 356.5625 306.472656 358.519531 306.46875 360.472656 306.46875 C 363.757812 306.46875 367.042969 306.46875 370.332031 306.472656 C 374.105469 306.472656 377.882812 306.472656 381.660156 306.472656 C 384.921875 306.46875 388.183594 306.46875 391.445312 306.46875 C 393.382812 306.472656 395.324219 306.472656 397.261719 306.46875 C 419.140625 306.457031 419.140625 306.457031 423.992188 307.808594 L 424.417969 308.660156 C 421.890625 308.703125 419.378906 308.683594 416.855469 308.507812 C 412.617188 308.21875 408.394531 308.183594 404.144531 308.199219 L 401.863281 308.203125 C 400.242188 308.207031 398.621094 308.210938 397 308.214844 C 394.441406 308.222656 391.878906 308.226562 389.316406 308.230469 C 382.035156 308.242188 374.757812 308.257812 367.480469 308.273438 C 363.445312 308.285156 359.414062 308.292969 355.378906 308.296875 C 352.832031 308.300781 350.28125 308.304688 347.734375 308.316406 C 346.15625 308.320312 344.578125 308.324219 343 308.324219 C 342.265625 308.324219 341.53125 308.328125 340.796875 308.332031 C 339.800781 308.335938 338.800781 308.335938 337.804688 308.335938 L 336.109375 308.339844 L 334.816406 308.234375 L 333.964844 307.382812 L 334.390625 306.953125 C 338.558594 306.402344 342.777344 306.464844 346.972656 306.472656 "/>
  </g>
</svg>
